<svg xmlns="http://www.w3.org/2000/svg" version="1.1" xmlns:xlink="http://www.w3.org/1999/xlink" xmlns:svgjs="http://svgjs.com/svgjs" width="1880" height="6000" preserveAspectRatio="none" viewBox="0 0 1880 6000"><g mask="url(&quot;#SvgjsMask2893&quot;)" fill="none"><rect width="1880" height="6000" x="0" y="0" fill="url(#SvgjsLinearGradient2894)"></rect><use xlink:href="#SvgjsSymbol2901" x="0" y="0"></use><use xlink:href="#SvgjsSymbol2901" x="0" y="720"></use><use xlink:href="#SvgjsSymbol2901" x="0" y="1440"></use><use xlink:href="#SvgjsSymbol2901" x="0" y="2160"></use><use xlink:href="#SvgjsSymbol2901" x="0" y="2880"></use><use xlink:href="#SvgjsSymbol2901" x="0" y="3600"></use><use xlink:href="#SvgjsSymbol2901" x="0" y="4320"></use><use xlink:href="#SvgjsSymbol2901" x="0" y="5040"></use><use xlink:href="#SvgjsSymbol2901" x="0" y="5760"></use><use xlink:href="#SvgjsSymbol2901" x="720" y="0"></use><use xlink:href="#SvgjsSymbol2901" x="720" y="720"></use><use xlink:href="#SvgjsSymbol2901" x="720" y="1440"></use><use xlink:href="#SvgjsSymbol2901" x="720" y="2160"></use><use xlink:href="#SvgjsSymbol2901" x="720" y="2880"></use><use xlink:href="#SvgjsSymbol2901" x="720" y="3600"></use><use xlink:href="#SvgjsSymbol2901" x="720" y="4320"></use><use xlink:href="#SvgjsSymbol2901" x="720" y="5040"></use><use xlink:href="#SvgjsSymbol2901" x="720" y="5760"></use><use xlink:href="#SvgjsSymbol2901" x="1440" y="0"></use><use xlink:href="#SvgjsSymbol2901" x="1440" y="720"></use><use xlink:href="#SvgjsSymbol2901" x="1440" y="1440"></use><use xlink:href="#SvgjsSymbol2901" x="1440" y="2160"></use><use xlink:href="#SvgjsSymbol2901" x="1440" y="2880"></use><use xlink:href="#SvgjsSymbol2901" x="1440" y="3600"></use><use xlink:href="#SvgjsSymbol2901" x="1440" y="4320"></use><use xlink:href="#SvgjsSymbol2901" x="1440" y="5040"></use><use xlink:href="#SvgjsSymbol2901" x="1440" y="5760"></use></g><defs><mask id="SvgjsMask2893"><rect width="1880" height="6000" fill="#ffffff"></rect></mask><linearGradient x1="154.79%" y1="17.17%" x2="-54.79%" y2="82.83%" gradientUnits="userSpaceOnUse" id="SvgjsLinearGradient2894"><stop stop-color="rgba(242, 192, 99, 1)" offset="0.51"></stop><stop stop-color="rgba(255, 230, 153, 1)" offset="1"></stop></linearGradient><path d="M-1 0 a1 1 0 1 0 2 0 a1 1 0 1 0 -2 0z" id="SvgjsPath2899"></path><path d="M-3 0 a3 3 0 1 0 6 0 a3 3 0 1 0 -6 0z" id="SvgjsPath2897"></path><path d="M-5 0 a5 5 0 1 0 10 0 a5 5 0 1 0 -10 0z" id="SvgjsPath2898"></path><path d="M2 -2 L-2 2z" id="SvgjsPath2896"></path><path d="M6 -6 L-6 6z" id="SvgjsPath2895"></path><path d="M30 -30 L-30 30z" id="SvgjsPath2900"></path></defs><symbol id="SvgjsSymbol2901"><use xlink:href="#SvgjsPath2895" x="30" y="30" stroke="rgba(242, 219, 148, 1)"></use><use xlink:href="#SvgjsPath2896" x="30" y="90" stroke="rgba(242, 219, 148, 1)"></use><use xlink:href="#SvgjsPath2897" x="30" y="150" stroke="rgba(242, 219, 148, 1)"></use><use xlink:href="#SvgjsPath2895" x="30" y="210" stroke="rgba(242, 219, 148, 1)"></use><use xlink:href="#SvgjsPath2897" x="30" y="270" stroke="rgba(242, 157, 82, 1)"></use><use xlink:href="#SvgjsPath2898" x="30" y="330" stroke="rgba(242, 219, 148, 1)"></use><use xlink:href="#SvgjsPath2896" x="30" y="390" stroke="rgba(242, 192, 99, 1)"></use><use xlink:href="#SvgjsPath2895" x="30" y="450" stroke="rgba(242, 192, 99, 1)"></use><use xlink:href="#SvgjsPath2895" x="30" y="510" stroke="rgba(242, 157, 82, 1)"></use><use xlink:href="#SvgjsPath2895" x="30" y="570" stroke="rgba(242, 219, 148, 1)"></use><use xlink:href="#SvgjsPath2898" x="30" y="630" stroke="rgba(242, 157, 82, 1)"></use><use xlink:href="#SvgjsPath2898" x="30" y="690" stroke="rgba(242, 157, 82, 1)"></use><use xlink:href="#SvgjsPath2896" x="90" y="30" stroke="rgba(242, 157, 82, 1)"></use><use xlink:href="#SvgjsPath2898" x="90" y="90" stroke="rgba(242, 192, 99, 1)"></use><use xlink:href="#SvgjsPath2898" x="90" y="150" stroke="rgba(242, 219, 148, 1)"></use><use xlink:href="#SvgjsPath2896" x="90" y="210" stroke="rgba(242, 219, 148, 1)"></use><use xlink:href="#SvgjsPath2897" x="90" y="270" stroke="rgba(242, 219, 148, 1)"></use><use xlink:href="#SvgjsPath2896" x="90" y="330" stroke="rgba(242, 192, 99, 1)"></use><use xlink:href="#SvgjsPath2899" x="90" y="390" stroke="rgba(242, 157, 82, 1)"></use><use xlink:href="#SvgjsPath2895" x="90" y="450" stroke="rgba(242, 192, 99, 1)"></use><use xlink:href="#SvgjsPath2899" x="90" y="510" stroke="rgba(242, 157, 82, 1)"></use><use xlink:href="#SvgjsPath2898" x="90" y="570" stroke="rgba(242, 219, 148, 1)"></use><use xlink:href="#SvgjsPath2898" x="90" y="630" stroke="rgba(242, 219, 148, 1)"></use><use xlink:href="#SvgjsPath2898" x="90" y="690" stroke="rgba(242, 219, 148, 1)"></use><use xlink:href="#SvgjsPath2899" x="150" y="30" stroke="rgba(242, 157, 82, 1)"></use><use xlink:href="#SvgjsPath2895" x="150" y="90" stroke="rgba(242, 192, 99, 1)"></use><use xlink:href="#SvgjsPath2899" x="150" y="150" stroke="rgba(242, 157, 82, 1)"></use><use xlink:href="#SvgjsPath2895" x="150" y="210" stroke="rgba(242, 157, 82, 1)"></use><use xlink:href="#SvgjsPath2895" x="150" y="270" stroke="rgba(242, 192, 99, 1)"></use><use xlink:href="#SvgjsPath2898" x="150" y="330" stroke="rgba(242, 157, 82, 1)"></use><use xlink:href="#SvgjsPath2895" x="150" y="390" stroke="rgba(242, 157, 82, 1)"></use><use xlink:href="#SvgjsPath2895" x="150" y="450" stroke="rgba(242, 157, 82, 1)"></use><use xlink:href="#SvgjsPath2897" x="150" y="510" stroke="rgba(242, 157, 82, 1)"></use><use xlink:href="#SvgjsPath2898" x="150" y="570" stroke="rgba(242, 192, 99, 1)"></use><use xlink:href="#SvgjsPath2895" x="150" y="630" stroke="rgba(242, 219, 148, 1)"></use><use xlink:href="#SvgjsPath2895" x="150" y="690" stroke="rgba(242, 219, 148, 1)"></use><use xlink:href="#SvgjsPath2896" x="210" y="30" stroke="rgba(242, 219, 148, 1)"></use><use xlink:href="#SvgjsPath2898" x="210" y="90" stroke="rgba(242, 157, 82, 1)"></use><use xlink:href="#SvgjsPath2899" x="210" y="150" stroke="rgba(242, 157, 82, 1)"></use><use xlink:href="#SvgjsPath2895" x="210" y="210" stroke="rgba(242, 157, 82, 1)"></use><use xlink:href="#SvgjsPath2895" x="210" y="270" stroke="rgba(242, 192, 99, 1)"></use><use xlink:href="#SvgjsPath2895" x="210" y="330" stroke="rgba(242, 157, 82, 1)"></use><use xlink:href="#SvgjsPath2900" x="210" y="390" stroke="rgba(242, 157, 82, 1)" stroke-width="3"></use><use xlink:href="#SvgjsPath2898" x="210" y="450" stroke="rgba(242, 219, 148, 1)"></use><use xlink:href="#SvgjsPath2896" x="210" y="510" stroke="rgba(242, 219, 148, 1)"></use><use xlink:href="#SvgjsPath2898" x="210" y="570" stroke="rgba(242, 157, 82, 1)"></use><use xlink:href="#SvgjsPath2899" x="210" y="630" stroke="rgba(242, 192, 99, 1)"></use><use xlink:href="#SvgjsPath2898" x="210" y="690" stroke="rgba(242, 192, 99, 1)"></use><use xlink:href="#SvgjsPath2898" x="270" y="30" stroke="rgba(242, 192, 99, 1)"></use><use xlink:href="#SvgjsPath2898" x="270" y="90" stroke="rgba(242, 219, 148, 1)"></use><use xlink:href="#SvgjsPath2899" x="270" y="150" stroke="rgba(242, 219, 148, 1)"></use><use xlink:href="#SvgjsPath2898" x="270" y="210" stroke="rgba(242, 157, 82, 1)"></use><use xlink:href="#SvgjsPath2898" x="270" y="270" stroke="rgba(242, 219, 148, 1)"></use><use xlink:href="#SvgjsPath2895" x="270" y="330" stroke="rgba(242, 157, 82, 1)"></use><use xlink:href="#SvgjsPath2898" x="270" y="390" stroke="rgba(242, 157, 82, 1)"></use><use xlink:href="#SvgjsPath2895" x="270" y="450" stroke="rgba(242, 219, 148, 1)"></use><use xlink:href="#SvgjsPath2898" x="270" y="510" stroke="rgba(242, 192, 99, 1)"></use><use xlink:href="#SvgjsPath2898" x="270" y="570" stroke="rgba(242, 192, 99, 1)"></use><use xlink:href="#SvgjsPath2898" x="270" y="630" stroke="rgba(242, 219, 148, 1)"></use><use xlink:href="#SvgjsPath2898" x="270" y="690" stroke="rgba(242, 157, 82, 1)"></use><use xlink:href="#SvgjsPath2897" x="330" y="30" stroke="rgba(242, 219, 148, 1)"></use><use xlink:href="#SvgjsPath2895" x="330" y="90" stroke="rgba(242, 157, 82, 1)"></use><use xlink:href="#SvgjsPath2895" x="330" y="150" stroke="rgba(242, 157, 82, 1)"></use><use xlink:href="#SvgjsPath2898" x="330" y="210" stroke="rgba(242, 219, 148, 1)"></use><use xlink:href="#SvgjsPath2895" x="330" y="270" stroke="rgba(242, 157, 82, 1)"></use><use xlink:href="#SvgjsPath2899" x="330" y="330" stroke="rgba(242, 157, 82, 1)"></use><use xlink:href="#SvgjsPath2895" x="330" y="390" stroke="rgba(242, 157, 82, 1)"></use><use xlink:href="#SvgjsPath2898" x="330" y="450" stroke="rgba(242, 192, 99, 1)"></use><use xlink:href="#SvgjsPath2896" x="330" y="510" stroke="rgba(242, 157, 82, 1)"></use><use xlink:href="#SvgjsPath2895" x="330" y="570" stroke="rgba(242, 192, 99, 1)"></use><use xlink:href="#SvgjsPath2895" x="330" y="630" stroke="rgba(242, 157, 82, 1)"></use><use xlink:href="#SvgjsPath2895" x="330" y="690" stroke="rgba(242, 219, 148, 1)"></use><use xlink:href="#SvgjsPath2898" x="390" y="30" stroke="rgba(242, 219, 148, 1)"></use><use xlink:href="#SvgjsPath2899" x="390" y="90" stroke="rgba(242, 219, 148, 1)"></use><use xlink:href="#SvgjsPath2899" x="390" y="150" stroke="rgba(242, 157, 82, 1)"></use><use xlink:href="#SvgjsPath2895" x="390" y="210" stroke="rgba(242, 219, 148, 1)"></use><use xlink:href="#SvgjsPath2898" x="390" y="270" stroke="rgba(242, 157, 82, 1)"></use><use xlink:href="#SvgjsPath2898" x="390" y="330" stroke="rgba(242, 192, 99, 1)"></use><use xlink:href="#SvgjsPath2895" x="390" y="390" stroke="rgba(242, 157, 82, 1)"></use><use xlink:href="#SvgjsPath2898" x="390" y="450" stroke="rgba(242, 157, 82, 1)"></use><use xlink:href="#SvgjsPath2898" x="390" y="510" stroke="rgba(242, 219, 148, 1)"></use><use xlink:href="#SvgjsPath2895" x="390" y="570" stroke="rgba(242, 157, 82, 1)"></use><use xlink:href="#SvgjsPath2896" x="390" y="630" stroke="rgba(242, 192, 99, 1)"></use><use xlink:href="#SvgjsPath2899" x="390" y="690" stroke="rgba(242, 219, 148, 1)"></use><use xlink:href="#SvgjsPath2899" x="450" y="30" stroke="rgba(242, 219, 148, 1)"></use><use xlink:href="#SvgjsPath2898" x="450" y="90" stroke="rgba(242, 157, 82, 1)"></use><use xlink:href="#SvgjsPath2898" x="450" y="150" stroke="rgba(242, 157, 82, 1)"></use><use xlink:href="#SvgjsPath2899" x="450" y="210" stroke="rgba(242, 192, 99, 1)"></use><use xlink:href="#SvgjsPath2898" x="450" y="270" stroke="rgba(242, 157, 82, 1)"></use><use xlink:href="#SvgjsPath2899" x="450" y="330" stroke="rgba(242, 219, 148, 1)"></use><use xlink:href="#SvgjsPath2898" x="450" y="390" stroke="rgba(242, 192, 99, 1)"></use><use xlink:href="#SvgjsPath2897" x="450" y="450" stroke="rgba(242, 192, 99, 1)"></use><use xlink:href="#SvgjsPath2899" x="450" y="510" stroke="rgba(242, 219, 148, 1)"></use><use xlink:href="#SvgjsPath2899" x="450" y="570" stroke="rgba(242, 157, 82, 1)"></use><use xlink:href="#SvgjsPath2895" x="450" y="630" stroke="rgba(242, 157, 82, 1)"></use><use xlink:href="#SvgjsPath2897" x="450" y="690" stroke="rgba(242, 192, 99, 1)"></use><use xlink:href="#SvgjsPath2897" x="510" y="30" stroke="rgba(242, 157, 82, 1)"></use><use xlink:href="#SvgjsPath2898" x="510" y="90" stroke="rgba(242, 157, 82, 1)"></use><use xlink:href="#SvgjsPath2898" x="510" y="150" stroke="rgba(242, 219, 148, 1)"></use><use xlink:href="#SvgjsPath2896" x="510" y="210" stroke="rgba(242, 219, 148, 1)"></use><use xlink:href="#SvgjsPath2895" x="510" y="270" stroke="rgba(242, 219, 148, 1)"></use><use xlink:href="#SvgjsPath2898" x="510" y="330" stroke="rgba(242, 192, 99, 1)"></use><use xlink:href="#SvgjsPath2895" x="510" y="390" stroke="rgba(242, 192, 99, 1)"></use><use xlink:href="#SvgjsPath2898" x="510" y="450" stroke="rgba(242, 157, 82, 1)"></use><use xlink:href="#SvgjsPath2898" x="510" y="510" stroke="rgba(242, 157, 82, 1)"></use><use xlink:href="#SvgjsPath2897" x="510" y="570" stroke="rgba(242, 219, 148, 1)"></use><use xlink:href="#SvgjsPath2898" x="510" y="630" stroke="rgba(242, 219, 148, 1)"></use><use xlink:href="#SvgjsPath2895" x="510" y="690" stroke="rgba(242, 219, 148, 1)"></use><use xlink:href="#SvgjsPath2897" x="570" y="30" stroke="rgba(242, 157, 82, 1)"></use><use xlink:href="#SvgjsPath2899" x="570" y="90" stroke="rgba(242, 157, 82, 1)"></use><use xlink:href="#SvgjsPath2896" x="570" y="150" stroke="rgba(242, 219, 148, 1)"></use><use xlink:href="#SvgjsPath2898" x="570" y="210" stroke="rgba(242, 157, 82, 1)"></use><use xlink:href="#SvgjsPath2896" x="570" y="270" stroke="rgba(242, 219, 148, 1)"></use><use xlink:href="#SvgjsPath2899" x="570" y="330" stroke="rgba(242, 157, 82, 1)"></use><use xlink:href="#SvgjsPath2895" x="570" y="390" stroke="rgba(242, 219, 148, 1)"></use><use xlink:href="#SvgjsPath2895" x="570" y="450" stroke="rgba(242, 157, 82, 1)"></use><use xlink:href="#SvgjsPath2899" x="570" y="510" stroke="rgba(242, 157, 82, 1)"></use><use xlink:href="#SvgjsPath2898" x="570" y="570" stroke="rgba(242, 192, 99, 1)"></use><use xlink:href="#SvgjsPath2895" x="570" y="630" stroke="rgba(242, 157, 82, 1)"></use><use xlink:href="#SvgjsPath2898" x="570" y="690" stroke="rgba(242, 157, 82, 1)"></use><use xlink:href="#SvgjsPath2898" x="630" y="30" stroke="rgba(242, 219, 148, 1)"></use><use xlink:href="#SvgjsPath2895" x="630" y="90" stroke="rgba(242, 157, 82, 1)"></use><use xlink:href="#SvgjsPath2899" x="630" y="150" stroke="rgba(242, 157, 82, 1)"></use><use xlink:href="#SvgjsPath2898" x="630" y="210" stroke="rgba(242, 157, 82, 1)"></use><use xlink:href="#SvgjsPath2897" x="630" y="270" stroke="rgba(242, 192, 99, 1)"></use><use xlink:href="#SvgjsPath2899" x="630" y="330" stroke="rgba(242, 157, 82, 1)"></use><use xlink:href="#SvgjsPath2899" x="630" y="390" stroke="rgba(242, 219, 148, 1)"></use><use xlink:href="#SvgjsPath2895" x="630" y="450" stroke="rgba(242, 157, 82, 1)"></use><use xlink:href="#SvgjsPath2895" x="630" y="510" stroke="rgba(242, 157, 82, 1)"></use><use xlink:href="#SvgjsPath2897" x="630" y="570" stroke="rgba(242, 219, 148, 1)"></use><use xlink:href="#SvgjsPath2900" x="630" y="630" stroke="rgba(242, 157, 82, 1)" stroke-width="3"></use><use xlink:href="#SvgjsPath2898" x="630" y="690" stroke="rgba(242, 219, 148, 1)"></use><use xlink:href="#SvgjsPath2895" x="690" y="30" stroke="rgba(242, 157, 82, 1)"></use><use xlink:href="#SvgjsPath2898" x="690" y="90" stroke="rgba(242, 157, 82, 1)"></use><use xlink:href="#SvgjsPath2896" x="690" y="150" stroke="rgba(242, 192, 99, 1)"></use><use xlink:href="#SvgjsPath2895" x="690" y="210" stroke="rgba(242, 219, 148, 1)"></use><use xlink:href="#SvgjsPath2899" x="690" y="270" stroke="rgba(242, 157, 82, 1)"></use><use xlink:href="#SvgjsPath2898" x="690" y="330" stroke="rgba(242, 157, 82, 1)"></use><use xlink:href="#SvgjsPath2897" x="690" y="390" stroke="rgba(242, 157, 82, 1)"></use><use xlink:href="#SvgjsPath2895" x="690" y="450" stroke="rgba(242, 157, 82, 1)"></use><use xlink:href="#SvgjsPath2898" x="690" y="510" stroke="rgba(242, 219, 148, 1)"></use><use xlink:href="#SvgjsPath2898" x="690" y="570" stroke="rgba(242, 157, 82, 1)"></use><use xlink:href="#SvgjsPath2895" x="690" y="630" stroke="rgba(242, 157, 82, 1)"></use><use xlink:href="#SvgjsPath2895" x="690" y="690" stroke="rgba(242, 192, 99, 1)"></use></symbol></svg>